{
	"patcher" : 	{
		"fileversion" : 1,
		"appversion" : 		{
			"major" : 8,
			"minor" : 1,
			"revision" : 9,
			"architecture" : "x64",
			"modernui" : 1
		}
,
		"classnamespace" : "box",
		"rect" : [ 59.0, 107.0, 640.0, 771.0 ],
		"bglocked" : 0,
		"openinpresentation" : 1,
		"default_fontsize" : 12.0,
		"default_fontface" : 0,
		"default_fontname" : "Arial",
		"gridonopen" : 1,
		"gridsize" : [ 15.0, 15.0 ],
		"gridsnaponopen" : 1,
		"objectsnaponopen" : 1,
		"statusbarvisible" : 2,
		"toolbarvisible" : 1,
		"lefttoolbarpinned" : 0,
		"toptoolbarpinned" : 0,
		"righttoolbarpinned" : 0,
		"bottomtoolbarpinned" : 0,
		"toolbars_unpinned_last_save" : 0,
		"tallnewobj" : 0,
		"boxanimatetime" : 200,
		"enablehscroll" : 1,
		"enablevscroll" : 1,
		"devicewidth" : 0.0,
		"description" : "",
		"digest" : "",
		"tags" : "",
		"style" : "",
		"subpatcher_template" : "",
		"assistshowspatchername" : 0,
		"boxes" : [ 			{
				"box" : 				{
					"comment" : "",
					"id" : "obj-4",
					"index" : 0,
					"maxclass" : "outlet",
					"numinlets" : 1,
					"numoutlets" : 0,
					"patching_rect" : [ 168.166667000000018, 713.0, 30.0, 30.0 ]
				}

			}
, 			{
				"box" : 				{
					"comment" : "",
					"id" : "obj-3",
					"index" : 0,
					"maxclass" : "inlet",
					"numinlets" : 0,
					"numoutlets" : 1,
					"outlettype" : [ "" ],
					"patching_rect" : [ 183.5, 6.0, 30.0, 30.0 ]
				}

			}
, 			{
				"box" : 				{
					"id" : "obj-129",
					"maxclass" : "newobj",
					"numinlets" : 2,
					"numoutlets" : 1,
					"outlettype" : [ "int" ],
					"patching_rect" : [ 133.166666666666742, 570.0, 46.0, 22.0 ],
					"text" : "+ 4096"
				}

			}
, 			{
				"box" : 				{
					"id" : "obj-130",
					"maxclass" : "newobj",
					"numinlets" : 2,
					"numoutlets" : 1,
					"outlettype" : [ "int" ],
					"patching_rect" : [ 136.166666666666742, 418.0, 43.0, 22.0 ],
					"text" : "- 4096"
				}

			}
, 			{
				"box" : 				{
					"id" : "obj-131",
					"maxclass" : "newobj",
					"numinlets" : 2,
					"numoutlets" : 1,
					"outlettype" : [ "int" ],
					"patching_rect" : [ 50.0, 570.0, 46.0, 22.0 ],
					"text" : "+ 4096"
				}

			}
, 			{
				"box" : 				{
					"id" : "obj-132",
					"maxclass" : "newobj",
					"numinlets" : 2,
					"numoutlets" : 1,
					"outlettype" : [ "int" ],
					"patching_rect" : [ 50.0, 418.0, 43.0, 22.0 ],
					"text" : "- 4096"
				}

			}
, 			{
				"box" : 				{
					"id" : "obj-133",
					"maxclass" : "newobj",
					"numinlets" : 2,
					"numoutlets" : 1,
					"outlettype" : [ "int" ],
					"patching_rect" : [ 300.0, 277.0, 46.0, 22.0 ],
					"text" : "+ 4096"
				}

			}
, 			{
				"box" : 				{
					"id" : "obj-134",
					"maxclass" : "newobj",
					"numinlets" : 2,
					"numoutlets" : 1,
					"outlettype" : [ "int" ],
					"patching_rect" : [ 300.0, 136.0, 43.0, 22.0 ],
					"text" : "- 4096"
				}

			}
, 			{
				"box" : 				{
					"id" : "obj-135",
					"maxclass" : "newobj",
					"numinlets" : 2,
					"numoutlets" : 1,
					"outlettype" : [ "int" ],
					"patching_rect" : [ 216.0, 273.0, 46.0, 22.0 ],
					"text" : "+ 4096"
				}

			}
, 			{
				"box" : 				{
					"id" : "obj-136",
					"maxclass" : "newobj",
					"numinlets" : 2,
					"numoutlets" : 1,
					"outlettype" : [ "int" ],
					"patching_rect" : [ 217.0, 132.0, 43.0, 22.0 ],
					"text" : "- 4096"
				}

			}
, 			{
				"box" : 				{
					"bgcolor" : [ 0.019607843137255, 0.019607843137255, 0.019607843137255, 1.0 ],
					"id" : "obj-137",
					"maxclass" : "number",
					"numinlets" : 1,
					"numoutlets" : 2,
					"outlettype" : [ "", "bang" ],
					"parameter_enable" : 0,
					"patching_rect" : [ 217.333333333333371, 601.0, 50.0, 22.0 ]
				}

			}
, 			{
				"box" : 				{
					"bgcolor" : [ 0.019607843137255, 0.019607843137255, 0.019607843137255, 1.0 ],
					"id" : "obj-138",
					"maxclass" : "number",
					"numinlets" : 1,
					"numoutlets" : 2,
					"outlettype" : [ "", "bang" ],
					"parameter_enable" : 0,
					"patching_rect" : [ 134.166666666666686, 602.0, 50.0, 22.0 ]
				}

			}
, 			{
				"box" : 				{
					"bgcolor" : [ 0.019607843137255, 0.019607843137255, 0.019607843137255, 1.0 ],
					"id" : "obj-139",
					"maxclass" : "number",
					"numinlets" : 1,
					"numoutlets" : 2,
					"outlettype" : [ "", "bang" ],
					"parameter_enable" : 0,
					"patching_rect" : [ 51.0, 603.0, 50.0, 22.0 ]
				}

			}
, 			{
				"box" : 				{
					"bgcolor" : [ 0.019607843137255, 0.019607843137255, 0.019607843137255, 1.0 ],
					"id" : "obj-140",
					"maxclass" : "number",
					"numinlets" : 1,
					"numoutlets" : 2,
					"outlettype" : [ "", "bang" ],
					"parameter_enable" : 0,
					"patching_rect" : [ 301.0, 304.0, 50.0, 22.0 ]
				}

			}
, 			{
				"box" : 				{
					"bgcolor" : [ 0.019607843137255, 0.019607843137255, 0.019607843137255, 1.0 ],
					"id" : "obj-141",
					"maxclass" : "number",
					"numinlets" : 1,
					"numoutlets" : 2,
					"outlettype" : [ "", "bang" ],
					"parameter_enable" : 0,
					"patching_rect" : [ 218.0, 304.0, 50.0, 22.0 ]
				}

			}
, 			{
				"box" : 				{
					"bgcolor" : [ 0.019607843137255, 0.019607843137255, 0.019607843137255, 1.0 ],
					"id" : "obj-142",
					"maxclass" : "number",
					"numinlets" : 1,
					"numoutlets" : 2,
					"outlettype" : [ "", "bang" ],
					"parameter_enable" : 0,
					"patching_rect" : [ 134.5, 305.0, 50.0, 22.0 ]
				}

			}
, 			{
				"box" : 				{
					"bgcolor" : [ 0.019607843137255, 0.019607843137255, 0.019607843137255, 1.0 ],
					"id" : "obj-143",
					"maxclass" : "number",
					"numinlets" : 1,
					"numoutlets" : 2,
					"outlettype" : [ "", "bang" ],
					"parameter_enable" : 0,
					"patching_rect" : [ 50.0, 305.0, 50.0, 22.0 ]
				}

			}
, 			{
				"box" : 				{
					"id" : "obj-144",
					"maxclass" : "newobj",
					"numinlets" : 4,
					"numoutlets" : 1,
					"outlettype" : [ "int" ],
					"patching_rect" : [ 218.0, 633.0, 79.0, 22.0 ],
					"text" : "nrpnout 8235"
				}

			}
, 			{
				"box" : 				{
					"id" : "obj-145",
					"maxclass" : "newobj",
					"numinlets" : 4,
					"numoutlets" : 1,
					"outlettype" : [ "int" ],
					"patching_rect" : [ 134.5, 633.0, 79.0, 22.0 ],
					"text" : "nrpnout 8417"
				}

			}
, 			{
				"box" : 				{
					"id" : "obj-146",
					"maxclass" : "newobj",
					"numinlets" : 4,
					"numoutlets" : 1,
					"outlettype" : [ "int" ],
					"patching_rect" : [ 50.0, 633.0, 79.0, 22.0 ],
					"text" : "nrpnout 8425"
				}

			}
, 			{
				"box" : 				{
					"id" : "obj-147",
					"maxclass" : "newobj",
					"numinlets" : 4,
					"numoutlets" : 1,
					"outlettype" : [ "int" ],
					"patching_rect" : [ 301.0, 336.0, 79.0, 22.0 ],
					"text" : "nrpnout 8416"
				}

			}
, 			{
				"box" : 				{
					"id" : "obj-148",
					"maxclass" : "newobj",
					"numinlets" : 4,
					"numoutlets" : 1,
					"outlettype" : [ "int" ],
					"patching_rect" : [ 218.0, 336.0, 79.0, 22.0 ],
					"text" : "nrpnout 8422"
				}

			}
, 			{
				"box" : 				{
					"id" : "obj-149",
					"maxclass" : "newobj",
					"numinlets" : 4,
					"numoutlets" : 1,
					"outlettype" : [ "int" ],
					"patching_rect" : [ 134.5, 336.0, 79.0, 22.0 ],
					"text" : "nrpnout 8233"
				}

			}
, 			{
				"box" : 				{
					"id" : "obj-150",
					"maxclass" : "newobj",
					"numinlets" : 4,
					"numoutlets" : 1,
					"outlettype" : [ "int" ],
					"patching_rect" : [ 50.0, 336.0, 79.0, 22.0 ],
					"text" : "nrpnout 8232"
				}

			}
, 			{
				"box" : 				{
					"id" : "obj-151",
					"maxclass" : "newobj",
					"numinlets" : 1,
					"numoutlets" : 3,
					"outlettype" : [ "int", "int", "int" ],
					"patching_rect" : [ 218.0, 387.0, 72.0, 22.0 ],
					"text" : "nrpnin 8235"
				}

			}
, 			{
				"box" : 				{
					"id" : "obj-152",
					"maxclass" : "newobj",
					"numinlets" : 1,
					"numoutlets" : 3,
					"outlettype" : [ "int", "int", "int" ],
					"patching_rect" : [ 134.5, 387.0, 72.0, 22.0 ],
					"text" : "nrpnin 8417"
				}

			}
, 			{
				"box" : 				{
					"id" : "obj-153",
					"maxclass" : "newobj",
					"numinlets" : 1,
					"numoutlets" : 3,
					"outlettype" : [ "int", "int", "int" ],
					"patching_rect" : [ 50.0, 387.0, 72.0, 22.0 ],
					"text" : "nrpnin 8425"
				}

			}
, 			{
				"box" : 				{
					"id" : "obj-154",
					"maxclass" : "newobj",
					"numinlets" : 1,
					"numoutlets" : 3,
					"outlettype" : [ "int", "int", "int" ],
					"patching_rect" : [ 301.0, 100.0, 72.0, 22.0 ],
					"text" : "nrpnin 8416"
				}

			}
, 			{
				"box" : 				{
					"id" : "obj-155",
					"maxclass" : "newobj",
					"numinlets" : 1,
					"numoutlets" : 3,
					"outlettype" : [ "int", "int", "int" ],
					"patching_rect" : [ 216.666666666666629, 100.0, 72.0, 22.0 ],
					"text" : "nrpnin 8422"
				}

			}
, 			{
				"box" : 				{
					"id" : "obj-156",
					"maxclass" : "newobj",
					"numinlets" : 1,
					"numoutlets" : 3,
					"outlettype" : [ "int", "int", "int" ],
					"patching_rect" : [ 134.833333333333314, 100.0, 72.0, 22.0 ],
					"text" : "nrpnin 8233"
				}

			}
, 			{
				"box" : 				{
					"id" : "obj-157",
					"maxclass" : "newobj",
					"numinlets" : 1,
					"numoutlets" : 3,
					"outlettype" : [ "int", "int", "int" ],
					"patching_rect" : [ 50.0, 100.0, 72.0, 22.0 ],
					"text" : "nrpnin 8232"
				}

			}
, 			{
				"box" : 				{
					"activedialcolor" : [ 0.482352941176471, 0.184313725490196, 0.0, 1.0 ],
					"activefgdialcolor" : [ 0.407843137254902, 0.407843137254902, 0.407843137254902, 1.0 ],
					"activeneedlecolor" : [ 0.964705882352941, 0.392156862745098, 0.117647058823529, 1.0 ],
					"fgdialcolor" : [ 0.286274509803922, 0.286274509803922, 0.286274509803922, 1.0 ],
					"id" : "obj-158",
					"maxclass" : "live.dial",
					"numinlets" : 1,
					"numoutlets" : 2,
					"outlettype" : [ "", "float" ],
					"parameter_enable" : 1,
					"patching_rect" : [ 217.333333333333371, 496.0, 64.0, 48.0 ],
					"presentation" : 1,
					"presentation_rect" : [ 132.0, 73.0, 64.0, 48.0 ],
					"saved_attribute_attributes" : 					{
						"valueof" : 						{
							"parameter_longname" : "Filter 1 Drive",
							"parameter_mmax" : 8192.0,
							"parameter_shortname" : "F1Drive",
							"parameter_type" : 0,
							"parameter_unitstyle" : 0
						}

					}
,
					"textcolor" : [ 0.764705882352941, 0.764705882352941, 0.764705882352941, 1.0 ],
					"varname" : "F1Drive"
				}

			}
, 			{
				"box" : 				{
					"activedialcolor" : [ 0.482352941176471, 0.184313725490196, 0.0, 1.0 ],
					"activefgdialcolor" : [ 0.407843137254902, 0.407843137254902, 0.407843137254902, 1.0 ],
					"activeneedlecolor" : [ 0.964705882352941, 0.392156862745098, 0.117647058823529, 1.0 ],
					"fgdialcolor" : [ 0.286274509803922, 0.286274509803922, 0.286274509803922, 1.0 ],
					"id" : "obj-159",
					"maxclass" : "live.dial",
					"numinlets" : 1,
					"numoutlets" : 2,
					"outlettype" : [ "", "float" ],
					"parameter_enable" : 1,
					"patching_rect" : [ 50.0, 496.0, 64.0, 54.0 ],
					"presentation" : 1,
					"presentation_rect" : [ 0.0, 73.0, 64.0, 54.0 ],
					"saved_attribute_attributes" : 					{
						"valueof" : 						{
							"parameter_initial" : [ 0.0 ],
							"parameter_initial_enable" : 1,
							"parameter_longname" : "Filter 1 Velocity Env",
							"parameter_mmax" : 4096.0,
							"parameter_mmin" : -4096.0,
							"parameter_shortname" : "F1VelEnv",
							"parameter_type" : 0,
							"parameter_unitstyle" : 0
						}

					}
,
					"textcolor" : [ 0.764705882352941, 0.764705882352941, 0.764705882352941, 1.0 ],
					"triangle" : 1,
					"varname" : "F1VelEnv"
				}

			}
, 			{
				"box" : 				{
					"activedialcolor" : [ 0.482352941176471, 0.184313725490196, 0.0, 1.0 ],
					"activefgdialcolor" : [ 0.407843137254902, 0.407843137254902, 0.407843137254902, 1.0 ],
					"activeneedlecolor" : [ 0.964705882352941, 0.392156862745098, 0.117647058823529, 1.0 ],
					"fgdialcolor" : [ 0.286274509803922, 0.286274509803922, 0.286274509803922, 1.0 ],
					"id" : "obj-160",
					"maxclass" : "live.dial",
					"numinlets" : 1,
					"numoutlets" : 2,
					"outlettype" : [ "", "float" ],
					"parameter_enable" : 1,
					"patching_rect" : [ 134.166667000000018, 496.0, 64.0, 54.0 ],
					"presentation" : 1,
					"presentation_rect" : [ 66.0, 73.0, 64.0, 54.0 ],
					"saved_attribute_attributes" : 					{
						"valueof" : 						{
							"parameter_initial" : [ 0.0 ],
							"parameter_initial_enable" : 1,
							"parameter_longname" : "Filter 1 ENV1amt",
							"parameter_mmax" : 4096.0,
							"parameter_mmin" : -4096.0,
							"parameter_shortname" : "F1Env1amt",
							"parameter_type" : 0,
							"parameter_unitstyle" : 0
						}

					}
,
					"textcolor" : [ 0.764705882352941, 0.764705882352941, 0.764705882352941, 1.0 ],
					"triangle" : 1,
					"varname" : "F1Env1amt"
				}

			}
, 			{
				"box" : 				{
					"activedialcolor" : [ 0.482352941176471, 0.184313725490196, 0.0, 1.0 ],
					"activefgdialcolor" : [ 0.407843137254902, 0.407843137254902, 0.407843137254902, 1.0 ],
					"activeneedlecolor" : [ 0.964705882352941, 0.392156862745098, 0.117647058823529, 1.0 ],
					"fgdialcolor" : [ 0.286274509803922, 0.286274509803922, 0.286274509803922, 1.0 ],
					"id" : "obj-161",
					"maxclass" : "live.dial",
					"numinlets" : 1,
					"numoutlets" : 2,
					"outlettype" : [ "", "float" ],
					"parameter_enable" : 1,
					"patching_rect" : [ 301.0, 202.0, 64.0, 54.0 ],
					"presentation" : 1,
					"presentation_rect" : [ 198.0, 11.0, 64.0, 54.0 ],
					"saved_attribute_attributes" : 					{
						"valueof" : 						{
							"parameter_initial" : [ 0.0 ],
							"parameter_initial_enable" : 1,
							"parameter_longname" : "Filter 1 LFO1amt",
							"parameter_mmax" : 4096.0,
							"parameter_mmin" : -4096.0,
							"parameter_shortname" : "F1LFO1amt",
							"parameter_type" : 0,
							"parameter_unitstyle" : 0
						}

					}
,
					"textcolor" : [ 0.764705882352941, 0.764705882352941, 0.764705882352941, 1.0 ],
					"triangle" : 1,
					"varname" : "F1LFO1amt"
				}

			}
, 			{
				"box" : 				{
					"activedialcolor" : [ 0.482352941176471, 0.184313725490196, 0.0, 1.0 ],
					"activefgdialcolor" : [ 0.407843137254902, 0.407843137254902, 0.407843137254902, 1.0 ],
					"activeneedlecolor" : [ 0.964705882352941, 0.392156862745098, 0.117647058823529, 1.0 ],
					"fgdialcolor" : [ 0.286274509803922, 0.286274509803922, 0.286274509803922, 1.0 ],
					"id" : "obj-162",
					"maxclass" : "live.dial",
					"numinlets" : 1,
					"numoutlets" : 2,
					"outlettype" : [ "", "float" ],
					"parameter_enable" : 1,
					"patching_rect" : [ 216.0, 202.0, 64.0, 54.0 ],
					"presentation" : 1,
					"presentation_rect" : [ 132.0, 11.0, 64.0, 54.0 ],
					"saved_attribute_attributes" : 					{
						"valueof" : 						{
							"parameter_initial" : [ 2048.0 ],
							"parameter_initial_enable" : 1,
							"parameter_longname" : "Filter 1 Keytrack",
							"parameter_mmax" : 4096.0,
							"parameter_mmin" : -4096.0,
							"parameter_shortname" : "F1Keytrack",
							"parameter_type" : 0,
							"parameter_unitstyle" : 0
						}

					}
,
					"textcolor" : [ 0.764705882352941, 0.764705882352941, 0.764705882352941, 1.0 ],
					"triangle" : 1,
					"varname" : "F1Keytrack"
				}

			}
, 			{
				"box" : 				{
					"activedialcolor" : [ 0.482352941176471, 0.184313725490196, 0.0, 1.0 ],
					"activefgdialcolor" : [ 0.407843137254902, 0.407843137254902, 0.407843137254902, 1.0 ],
					"activeneedlecolor" : [ 0.964705882352941, 0.392156862745098, 0.117647058823529, 1.0 ],
					"fgdialcolor" : [ 0.286274509803922, 0.286274509803922, 0.286274509803922, 1.0 ],
					"id" : "obj-163",
					"maxclass" : "live.dial",
					"numinlets" : 1,
					"numoutlets" : 2,
					"outlettype" : [ "", "float" ],
					"parameter_enable" : 1,
					"patching_rect" : [ 50.0, 202.0, 64.0, 48.0 ],
					"presentation" : 1,
					"presentation_rect" : [ 0.0, 11.0, 64.0, 48.0 ],
					"saved_attribute_attributes" : 					{
						"valueof" : 						{
							"parameter_initial" : [ 8192.0 ],
							"parameter_initial_enable" : 1,
							"parameter_longname" : "Filter 1 Cutoff",
							"parameter_mmax" : 8192.0,
							"parameter_shortname" : "F1Cutoff",
							"parameter_type" : 0,
							"parameter_unitstyle" : 0
						}

					}
,
					"textcolor" : [ 0.764705882352941, 0.764705882352941, 0.764705882352941, 1.0 ],
					"varname" : "F1Cutoff"
				}

			}
, 			{
				"box" : 				{
					"activedialcolor" : [ 0.482352941176471, 0.184313725490196, 0.0, 1.0 ],
					"activefgdialcolor" : [ 0.407843137254902, 0.407843137254902, 0.407843137254902, 1.0 ],
					"activeneedlecolor" : [ 0.964705882352941, 0.392156862745098, 0.117647058823529, 1.0 ],
					"fgdialcolor" : [ 0.286274509803922, 0.286274509803922, 0.286274509803922, 1.0 ],
					"id" : "obj-164",
					"maxclass" : "live.dial",
					"numinlets" : 1,
					"numoutlets" : 2,
					"outlettype" : [ "", "float" ],
					"parameter_enable" : 1,
					"patching_rect" : [ 134.5, 202.0, 64.0, 48.0 ],
					"presentation" : 1,
					"presentation_rect" : [ 66.0, 11.0, 64.0, 48.0 ],
					"saved_attribute_attributes" : 					{
						"valueof" : 						{
							"parameter_longname" : "Filter 1 Resonance",
							"parameter_mmax" : 8192.0,
							"parameter_shortname" : "F1Resonance",
							"parameter_type" : 0,
							"parameter_unitstyle" : 0
						}

					}
,
					"textcolor" : [ 0.764705882352941, 0.764705882352941, 0.764705882352941, 1.0 ],
					"varname" : "F1Resonance"
				}

			}
, 			{
				"box" : 				{
					"angle" : 270.0,
					"bgcolor" : [ 0.149019607843137, 0.149019607843137, 0.149019607843137, 1.0 ],
					"border" : 3,
					"bordercolor" : [ 0.2, 0.2, 0.2, 1.0 ],
					"id" : "obj-165",
					"maxclass" : "panel",
					"mode" : 0,
					"numinlets" : 1,
					"numoutlets" : 0,
					"patching_rect" : [ 11.0, 12.0, 51.0, 30.0 ],
					"presentation" : 1,
					"presentation_rect" : [ 0.0, 0.0, 265.0, 134.0 ],
					"proportion" : 0.5,
					"rounded" : 0
				}

			}
 ],
		"lines" : [ 			{
				"patchline" : 				{
					"destination" : [ "obj-138", 0 ],
					"source" : [ "obj-129", 0 ]
				}

			}
, 			{
				"patchline" : 				{
					"destination" : [ "obj-160", 0 ],
					"source" : [ "obj-130", 0 ]
				}

			}
, 			{
				"patchline" : 				{
					"destination" : [ "obj-139", 0 ],
					"source" : [ "obj-131", 0 ]
				}

			}
, 			{
				"patchline" : 				{
					"destination" : [ "obj-159", 0 ],
					"source" : [ "obj-132", 0 ]
				}

			}
, 			{
				"patchline" : 				{
					"destination" : [ "obj-140", 0 ],
					"source" : [ "obj-133", 0 ]
				}

			}
, 			{
				"patchline" : 				{
					"destination" : [ "obj-161", 0 ],
					"source" : [ "obj-134", 0 ]
				}

			}
, 			{
				"patchline" : 				{
					"destination" : [ "obj-141", 0 ],
					"source" : [ "obj-135", 0 ]
				}

			}
, 			{
				"patchline" : 				{
					"destination" : [ "obj-162", 0 ],
					"source" : [ "obj-136", 0 ]
				}

			}
, 			{
				"patchline" : 				{
					"destination" : [ "obj-144", 0 ],
					"source" : [ "obj-137", 0 ]
				}

			}
, 			{
				"patchline" : 				{
					"destination" : [ "obj-145", 0 ],
					"source" : [ "obj-138", 0 ]
				}

			}
, 			{
				"patchline" : 				{
					"destination" : [ "obj-146", 0 ],
					"source" : [ "obj-139", 0 ]
				}

			}
, 			{
				"patchline" : 				{
					"destination" : [ "obj-147", 0 ],
					"source" : [ "obj-140", 0 ]
				}

			}
, 			{
				"patchline" : 				{
					"destination" : [ "obj-148", 0 ],
					"source" : [ "obj-141", 0 ]
				}

			}
, 			{
				"patchline" : 				{
					"destination" : [ "obj-149", 0 ],
					"source" : [ "obj-142", 0 ]
				}

			}
, 			{
				"patchline" : 				{
					"destination" : [ "obj-150", 0 ],
					"source" : [ "obj-143", 0 ]
				}

			}
, 			{
				"patchline" : 				{
					"destination" : [ "obj-4", 0 ],
					"midpoints" : [ 227.5, 699.0, 177.666667000000018, 699.0 ],
					"source" : [ "obj-144", 0 ]
				}

			}
, 			{
				"patchline" : 				{
					"destination" : [ "obj-4", 0 ],
					"midpoints" : [ 144.0, 699.0, 177.666667000000018, 699.0 ],
					"source" : [ "obj-145", 0 ]
				}

			}
, 			{
				"patchline" : 				{
					"destination" : [ "obj-4", 0 ],
					"midpoints" : [ 59.5, 699.0, 177.666667000000018, 699.0 ],
					"source" : [ "obj-146", 0 ]
				}

			}
, 			{
				"patchline" : 				{
					"destination" : [ "obj-4", 0 ],
					"midpoints" : [ 310.5, 699.0, 177.666667000000018, 699.0 ],
					"source" : [ "obj-147", 0 ]
				}

			}
, 			{
				"patchline" : 				{
					"destination" : [ "obj-4", 0 ],
					"midpoints" : [ 227.5, 372.0, 309.0, 372.0, 309.0, 699.0, 177.666667000000018, 699.0 ],
					"source" : [ "obj-148", 0 ]
				}

			}
, 			{
				"patchline" : 				{
					"destination" : [ "obj-4", 0 ],
					"midpoints" : [ 144.0, 372.0, 36.0, 372.0, 36.0, 699.0, 177.666667000000018, 699.0 ],
					"source" : [ "obj-149", 0 ]
				}

			}
, 			{
				"patchline" : 				{
					"destination" : [ "obj-4", 0 ],
					"midpoints" : [ 59.5, 372.0, 36.0, 372.0, 36.0, 699.0, 177.666667000000018, 699.0 ],
					"source" : [ "obj-150", 0 ]
				}

			}
, 			{
				"patchline" : 				{
					"destination" : [ "obj-158", 0 ],
					"source" : [ "obj-151", 0 ]
				}

			}
, 			{
				"patchline" : 				{
					"destination" : [ "obj-130", 0 ],
					"source" : [ "obj-152", 0 ]
				}

			}
, 			{
				"patchline" : 				{
					"destination" : [ "obj-132", 0 ],
					"source" : [ "obj-153", 0 ]
				}

			}
, 			{
				"patchline" : 				{
					"destination" : [ "obj-134", 0 ],
					"source" : [ "obj-154", 0 ]
				}

			}
, 			{
				"patchline" : 				{
					"destination" : [ "obj-136", 0 ],
					"source" : [ "obj-155", 0 ]
				}

			}
, 			{
				"patchline" : 				{
					"destination" : [ "obj-164", 0 ],
					"source" : [ "obj-156", 0 ]
				}

			}
, 			{
				"patchline" : 				{
					"destination" : [ "obj-163", 0 ],
					"source" : [ "obj-157", 0 ]
				}

			}
, 			{
				"patchline" : 				{
					"destination" : [ "obj-137", 0 ],
					"source" : [ "obj-158", 0 ]
				}

			}
, 			{
				"patchline" : 				{
					"destination" : [ "obj-131", 0 ],
					"source" : [ "obj-159", 0 ]
				}

			}
, 			{
				"patchline" : 				{
					"destination" : [ "obj-129", 0 ],
					"source" : [ "obj-160", 0 ]
				}

			}
, 			{
				"patchline" : 				{
					"destination" : [ "obj-133", 0 ],
					"source" : [ "obj-161", 0 ]
				}

			}
, 			{
				"patchline" : 				{
					"destination" : [ "obj-135", 0 ],
					"source" : [ "obj-162", 0 ]
				}

			}
, 			{
				"patchline" : 				{
					"destination" : [ "obj-143", 0 ],
					"source" : [ "obj-163", 0 ]
				}

			}
, 			{
				"patchline" : 				{
					"destination" : [ "obj-142", 0 ],
					"source" : [ "obj-164", 0 ]
				}

			}
, 			{
				"patchline" : 				{
					"destination" : [ "obj-151", 0 ],
					"midpoints" : [ 193.0, 87.0, 396.0, 87.0, 396.0, 189.0, 397.0, 189.0, 397.0, 333.0, 395.0, 333.0, 395.0, 372.0, 227.5, 372.0 ],
					"order" : 1,
					"source" : [ "obj-3", 0 ]
				}

			}
, 			{
				"patchline" : 				{
					"destination" : [ "obj-152", 0 ],
					"midpoints" : [ 193.0, 87.0, 34.0, 87.0, 34.0, 372.0, 144.0, 372.0 ],
					"order" : 3,
					"source" : [ "obj-3", 0 ]
				}

			}
, 			{
				"patchline" : 				{
					"destination" : [ "obj-153", 0 ],
					"midpoints" : [ 193.0, 87.0, 36.0, 87.0, 36.0, 372.0, 59.5, 372.0 ],
					"order" : 5,
					"source" : [ "obj-3", 0 ]
				}

			}
, 			{
				"patchline" : 				{
					"destination" : [ "obj-154", 0 ],
					"midpoints" : [ 193.0, 87.0, 310.5, 87.0 ],
					"order" : 0,
					"source" : [ "obj-3", 0 ]
				}

			}
, 			{
				"patchline" : 				{
					"destination" : [ "obj-155", 0 ],
					"midpoints" : [ 193.0, 87.0, 226.166666666666629, 87.0 ],
					"order" : 2,
					"source" : [ "obj-3", 0 ]
				}

			}
, 			{
				"patchline" : 				{
					"destination" : [ "obj-156", 0 ],
					"midpoints" : [ 193.0, 87.0, 144.333333333333314, 87.0 ],
					"order" : 4,
					"source" : [ "obj-3", 0 ]
				}

			}
, 			{
				"patchline" : 				{
					"destination" : [ "obj-157", 0 ],
					"midpoints" : [ 193.0, 87.0, 59.5, 87.0 ],
					"order" : 6,
					"source" : [ "obj-3", 0 ]
				}

			}
 ],
		"parameters" : 		{
			"obj-158" : [ "Filter 1 Drive", "F1Drive", 0 ],
			"obj-159" : [ "Filter 1 Velocity Env", "F1VelEnv", 0 ],
			"obj-160" : [ "Filter 1 ENV1amt", "F1Env1amt", 0 ],
			"obj-161" : [ "Filter 1 LFO1amt", "F1LFO1amt", 0 ],
			"obj-162" : [ "Filter 1 Keytrack", "F1Keytrack", 0 ],
			"obj-163" : [ "Filter 1 Cutoff", "F1Cutoff", 0 ],
			"obj-164" : [ "Filter 1 Resonance", "F1Resonance", 0 ],
			"parameterbanks" : 			{

			}
,
			"inherited_shortname" : 1
		}
,
		"dependency_cache" : [  ],
		"autosave" : 0
	}

}
