{
	"patcher" : 	{
		"fileversion" : 1,
		"appversion" : 		{
			"major" : 8,
			"minor" : 1,
			"revision" : 9,
			"architecture" : "x64",
			"modernui" : 1
		}
,
		"classnamespace" : "box",
		"rect" : [ 59.0, 107.0, 640.0, 800.0 ],
		"bglocked" : 0,
		"openinpresentation" : 1,
		"default_fontsize" : 12.0,
		"default_fontface" : 0,
		"default_fontname" : "Arial",
		"gridonopen" : 1,
		"gridsize" : [ 15.0, 15.0 ],
		"gridsnaponopen" : 1,
		"objectsnaponopen" : 1,
		"statusbarvisible" : 2,
		"toolbarvisible" : 1,
		"lefttoolbarpinned" : 0,
		"toptoolbarpinned" : 0,
		"righttoolbarpinned" : 0,
		"bottomtoolbarpinned" : 0,
		"toolbars_unpinned_last_save" : 0,
		"tallnewobj" : 0,
		"boxanimatetime" : 200,
		"enablehscroll" : 1,
		"enablevscroll" : 1,
		"devicewidth" : 0.0,
		"description" : "",
		"digest" : "",
		"tags" : "",
		"style" : "",
		"subpatcher_template" : "",
		"assistshowspatchername" : 0,
		"boxes" : [ 			{
				"box" : 				{
					"comment" : "",
					"id" : "obj-2",
					"index" : 0,
					"maxclass" : "outlet",
					"numinlets" : 1,
					"numoutlets" : 0,
					"patching_rect" : [ 241.0, 739.0, 30.0, 30.0 ]
				}

			}
, 			{
				"box" : 				{
					"comment" : "",
					"id" : "obj-1",
					"index" : 0,
					"maxclass" : "inlet",
					"numinlets" : 0,
					"numoutlets" : 1,
					"outlettype" : [ "" ],
					"patching_rect" : [ 243.0, 15.0, 30.0, 30.0 ]
				}

			}
, 			{
				"box" : 				{
					"bgcolor" : [ 0.019607843137255, 0.019607843137255, 0.019607843137255, 1.0 ],
					"id" : "obj-41",
					"maxclass" : "number",
					"numinlets" : 1,
					"numoutlets" : 2,
					"outlettype" : [ "", "bang" ],
					"parameter_enable" : 0,
					"patching_rect" : [ 300.0, 608.0, 50.0, 22.0 ]
				}

			}
, 			{
				"box" : 				{
					"bgcolor" : [ 0.019607843137255, 0.019607843137255, 0.019607843137255, 1.0 ],
					"id" : "obj-39",
					"maxclass" : "number",
					"numinlets" : 1,
					"numoutlets" : 2,
					"outlettype" : [ "", "bang" ],
					"parameter_enable" : 0,
					"patching_rect" : [ 218.166666666666742, 606.0, 50.0, 22.0 ]
				}

			}
, 			{
				"box" : 				{
					"bgcolor" : [ 0.019607843137255, 0.019607843137255, 0.019607843137255, 1.0 ],
					"id" : "obj-38",
					"maxclass" : "number",
					"numinlets" : 1,
					"numoutlets" : 2,
					"outlettype" : [ "", "bang" ],
					"parameter_enable" : 0,
					"patching_rect" : [ 135.0, 607.0, 50.0, 22.0 ]
				}

			}
, 			{
				"box" : 				{
					"bgcolor" : [ 0.019607843137255, 0.019607843137255, 0.019607843137255, 1.0 ],
					"id" : "obj-37",
					"maxclass" : "number",
					"numinlets" : 1,
					"numoutlets" : 2,
					"outlettype" : [ "", "bang" ],
					"parameter_enable" : 0,
					"patching_rect" : [ 301.0, 308.0, 50.0, 22.0 ]
				}

			}
, 			{
				"box" : 				{
					"bgcolor" : [ 0.019607843137255, 0.019607843137255, 0.019607843137255, 1.0 ],
					"id" : "obj-35",
					"maxclass" : "number",
					"numinlets" : 1,
					"numoutlets" : 2,
					"outlettype" : [ "", "bang" ],
					"parameter_enable" : 0,
					"patching_rect" : [ 218.5, 309.0, 50.0, 22.0 ]
				}

			}
, 			{
				"box" : 				{
					"bgcolor" : [ 0.019607843137255, 0.019607843137255, 0.019607843137255, 1.0 ],
					"id" : "obj-34",
					"maxclass" : "number",
					"numinlets" : 1,
					"numoutlets" : 2,
					"outlettype" : [ "", "bang" ],
					"parameter_enable" : 0,
					"patching_rect" : [ 134.0, 309.0, 50.0, 22.0 ]
				}

			}
, 			{
				"box" : 				{
					"id" : "obj-24",
					"maxclass" : "newobj",
					"numinlets" : 4,
					"numoutlets" : 1,
					"outlettype" : [ "int" ],
					"patching_rect" : [ 301.0, 637.0, 79.0, 22.0 ],
					"text" : "nrpnout 8433"
				}

			}
, 			{
				"box" : 				{
					"id" : "obj-26",
					"maxclass" : "newobj",
					"numinlets" : 4,
					"numoutlets" : 1,
					"outlettype" : [ "int" ],
					"patching_rect" : [ 218.5, 637.0, 79.0, 22.0 ],
					"text" : "nrpnout 8435"
				}

			}
, 			{
				"box" : 				{
					"id" : "obj-27",
					"maxclass" : "newobj",
					"numinlets" : 4,
					"numoutlets" : 1,
					"outlettype" : [ "int" ],
					"patching_rect" : [ 134.0, 637.0, 79.0, 22.0 ],
					"text" : "nrpnout 8434"
				}

			}
, 			{
				"box" : 				{
					"id" : "obj-23",
					"maxclass" : "newobj",
					"numinlets" : 4,
					"numoutlets" : 1,
					"outlettype" : [ "int" ],
					"patching_rect" : [ 301.0, 340.0, 79.0, 22.0 ],
					"text" : "nrpnout 8430"
				}

			}
, 			{
				"box" : 				{
					"id" : "obj-21",
					"maxclass" : "newobj",
					"numinlets" : 4,
					"numoutlets" : 1,
					"outlettype" : [ "int" ],
					"patching_rect" : [ 218.5, 340.0, 79.0, 22.0 ],
					"text" : "nrpnout 8432"
				}

			}
, 			{
				"box" : 				{
					"id" : "obj-22",
					"maxclass" : "newobj",
					"numinlets" : 4,
					"numoutlets" : 1,
					"outlettype" : [ "int" ],
					"patching_rect" : [ 134.0, 340.0, 79.0, 22.0 ],
					"text" : "nrpnout 8431"
				}

			}
, 			{
				"box" : 				{
					"id" : "obj-25",
					"maxclass" : "newobj",
					"numinlets" : 1,
					"numoutlets" : 3,
					"outlettype" : [ "int", "int", "int" ],
					"patching_rect" : [ 301.0, 391.0, 72.0, 22.0 ],
					"text" : "nrpnin 8433"
				}

			}
, 			{
				"box" : 				{
					"id" : "obj-28",
					"maxclass" : "newobj",
					"numinlets" : 1,
					"numoutlets" : 3,
					"outlettype" : [ "int", "int", "int" ],
					"patching_rect" : [ 218.5, 391.0, 72.0, 22.0 ],
					"text" : "nrpnin 8435"
				}

			}
, 			{
				"box" : 				{
					"id" : "obj-29",
					"maxclass" : "newobj",
					"numinlets" : 1,
					"numoutlets" : 3,
					"outlettype" : [ "int", "int", "int" ],
					"patching_rect" : [ 134.0, 391.0, 72.0, 22.0 ],
					"text" : "nrpnin 8434"
				}

			}
, 			{
				"box" : 				{
					"id" : "obj-30",
					"maxclass" : "newobj",
					"numinlets" : 1,
					"numoutlets" : 3,
					"outlettype" : [ "int", "int", "int" ],
					"patching_rect" : [ 301.0, 104.0, 72.0, 22.0 ],
					"text" : "nrpnin 8430"
				}

			}
, 			{
				"box" : 				{
					"id" : "obj-31",
					"maxclass" : "newobj",
					"numinlets" : 1,
					"numoutlets" : 3,
					"outlettype" : [ "int", "int", "int" ],
					"patching_rect" : [ 218.833333333333258, 104.0, 72.0, 22.0 ],
					"text" : "nrpnin 8432"
				}

			}
, 			{
				"box" : 				{
					"id" : "obj-32",
					"maxclass" : "newobj",
					"numinlets" : 1,
					"numoutlets" : 3,
					"outlettype" : [ "int", "int", "int" ],
					"patching_rect" : [ 134.0, 104.0, 72.0, 22.0 ],
					"text" : "nrpnin 8431"
				}

			}
, 			{
				"box" : 				{
					"activedialcolor" : [ 0.482352941176471, 0.184313725490196, 0.0, 1.0 ],
					"activefgdialcolor" : [ 0.407843137254902, 0.407843137254902, 0.407843137254902, 1.0 ],
					"activeneedlecolor" : [ 0.964705882352941, 0.392156862745098, 0.117647058823529, 1.0 ],
					"fgdialcolor" : [ 0.286274509803922, 0.286274509803922, 0.286274509803922, 1.0 ],
					"id" : "obj-33",
					"maxclass" : "live.dial",
					"numinlets" : 1,
					"numoutlets" : 2,
					"outlettype" : [ "", "float" ],
					"parameter_enable" : 1,
					"patching_rect" : [ 301.0, 500.0, 64.0, 48.0 ],
					"presentation" : 1,
					"presentation_rect" : [ 130.0, 73.0, 64.0, 48.0 ],
					"saved_attribute_attributes" : 					{
						"valueof" : 						{
							"parameter_longname" : "POST FX Mix",
							"parameter_mmax" : 8192.0,
							"parameter_shortname" : "PostMix",
							"parameter_type" : 0,
							"parameter_unitstyle" : 0
						}

					}
,
					"textcolor" : [ 0.764705882352941, 0.764705882352941, 0.764705882352941, 1.0 ],
					"varname" : "PostMix"
				}

			}
, 			{
				"box" : 				{
					"activedialcolor" : [ 0.482352941176471, 0.184313725490196, 0.0, 1.0 ],
					"activefgdialcolor" : [ 0.407843137254902, 0.407843137254902, 0.407843137254902, 1.0 ],
					"activeneedlecolor" : [ 0.964705882352941, 0.392156862745098, 0.117647058823529, 1.0 ],
					"fgdialcolor" : [ 0.286274509803922, 0.286274509803922, 0.286274509803922, 1.0 ],
					"id" : "obj-36",
					"maxclass" : "live.dial",
					"numinlets" : 1,
					"numoutlets" : 2,
					"outlettype" : [ "", "float" ],
					"parameter_enable" : 1,
					"patching_rect" : [ 134.0, 500.0, 64.0, 48.0 ],
					"presentation" : 1,
					"presentation_rect" : [ 0.0, 73.0, 64.0, 48.0 ],
					"saved_attribute_attributes" : 					{
						"valueof" : 						{
							"parameter_longname" : "POST-FX Param1",
							"parameter_mmax" : 8192.0,
							"parameter_shortname" : "PostParam1",
							"parameter_type" : 0,
							"parameter_unitstyle" : 0
						}

					}
,
					"textcolor" : [ 0.764705882352941, 0.764705882352941, 0.764705882352941, 1.0 ],
					"varname" : "PostParam1"
				}

			}
, 			{
				"box" : 				{
					"activedialcolor" : [ 0.482352941176471, 0.184313725490196, 0.0, 1.0 ],
					"activefgdialcolor" : [ 0.407843137254902, 0.407843137254902, 0.407843137254902, 1.0 ],
					"activeneedlecolor" : [ 0.964705882352941, 0.392156862745098, 0.117647058823529, 1.0 ],
					"fgdialcolor" : [ 0.286274509803922, 0.286274509803922, 0.286274509803922, 1.0 ],
					"id" : "obj-40",
					"maxclass" : "live.dial",
					"numinlets" : 1,
					"numoutlets" : 2,
					"outlettype" : [ "", "float" ],
					"parameter_enable" : 1,
					"patching_rect" : [ 218.166666666666742, 500.0, 64.0, 48.0 ],
					"presentation" : 1,
					"presentation_rect" : [ 66.0, 73.0, 64.0, 48.0 ],
					"saved_attribute_attributes" : 					{
						"valueof" : 						{
							"parameter_longname" : "POST-FX Param2",
							"parameter_mmax" : 8192.0,
							"parameter_shortname" : "PostParam2",
							"parameter_type" : 0,
							"parameter_unitstyle" : 0
						}

					}
,
					"textcolor" : [ 0.764705882352941, 0.764705882352941, 0.764705882352941, 1.0 ],
					"varname" : "PostParam2"
				}

			}
, 			{
				"box" : 				{
					"activedialcolor" : [ 0.482352941176471, 0.184313725490196, 0.0, 1.0 ],
					"activefgdialcolor" : [ 0.407843137254902, 0.407843137254902, 0.407843137254902, 1.0 ],
					"activeneedlecolor" : [ 0.964705882352941, 0.392156862745098, 0.117647058823529, 1.0 ],
					"fgdialcolor" : [ 0.286274509803922, 0.286274509803922, 0.286274509803922, 1.0 ],
					"id" : "obj-42",
					"maxclass" : "live.dial",
					"numinlets" : 1,
					"numoutlets" : 2,
					"outlettype" : [ "", "float" ],
					"parameter_enable" : 1,
					"patching_rect" : [ 301.0, 206.0, 64.0, 48.0 ],
					"presentation" : 1,
					"presentation_rect" : [ 130.0, 11.0, 64.0, 48.0 ],
					"saved_attribute_attributes" : 					{
						"valueof" : 						{
							"parameter_longname" : "PRE-FX Mix",
							"parameter_mmax" : 8192.0,
							"parameter_shortname" : "PreMix",
							"parameter_type" : 0,
							"parameter_unitstyle" : 0
						}

					}
,
					"textcolor" : [ 0.764705882352941, 0.764705882352941, 0.764705882352941, 1.0 ],
					"varname" : "PreMix"
				}

			}
, 			{
				"box" : 				{
					"activedialcolor" : [ 0.482352941176471, 0.184313725490196, 0.0, 1.0 ],
					"activefgdialcolor" : [ 0.407843137254902, 0.407843137254902, 0.407843137254902, 1.0 ],
					"activeneedlecolor" : [ 0.964705882352941, 0.392156862745098, 0.117647058823529, 1.0 ],
					"fgdialcolor" : [ 0.286274509803922, 0.286274509803922, 0.286274509803922, 1.0 ],
					"id" : "obj-43",
					"maxclass" : "live.dial",
					"numinlets" : 1,
					"numoutlets" : 2,
					"outlettype" : [ "", "float" ],
					"parameter_enable" : 1,
					"patching_rect" : [ 134.0, 206.0, 64.0, 48.0 ],
					"presentation" : 1,
					"presentation_rect" : [ 0.0, 11.0, 64.0, 48.0 ],
					"saved_attribute_attributes" : 					{
						"valueof" : 						{
							"parameter_longname" : "PRE-FX Param1",
							"parameter_mmax" : 8192.0,
							"parameter_shortname" : "PreParam1",
							"parameter_type" : 0,
							"parameter_unitstyle" : 0
						}

					}
,
					"textcolor" : [ 0.764705882352941, 0.764705882352941, 0.764705882352941, 1.0 ],
					"varname" : "PreParam1"
				}

			}
, 			{
				"box" : 				{
					"activedialcolor" : [ 0.482352941176471, 0.184313725490196, 0.0, 1.0 ],
					"activefgdialcolor" : [ 0.407843137254902, 0.407843137254902, 0.407843137254902, 1.0 ],
					"activeneedlecolor" : [ 0.964705882352941, 0.392156862745098, 0.117647058823529, 1.0 ],
					"fgdialcolor" : [ 0.286274509803922, 0.286274509803922, 0.286274509803922, 1.0 ],
					"id" : "obj-44",
					"maxclass" : "live.dial",
					"numinlets" : 1,
					"numoutlets" : 2,
					"outlettype" : [ "", "float" ],
					"parameter_enable" : 1,
					"patching_rect" : [ 218.5, 206.0, 64.0, 48.0 ],
					"presentation" : 1,
					"presentation_rect" : [ 66.0, 11.0, 64.0, 48.0 ],
					"saved_attribute_attributes" : 					{
						"valueof" : 						{
							"parameter_longname" : "PRE-FX Param2",
							"parameter_mmax" : 8192.0,
							"parameter_shortname" : "PreParam2",
							"parameter_type" : 0,
							"parameter_unitstyle" : 0
						}

					}
,
					"textcolor" : [ 0.764705882352941, 0.764705882352941, 0.764705882352941, 1.0 ],
					"varname" : "PreParam2"
				}

			}
, 			{
				"box" : 				{
					"angle" : 270.0,
					"bgcolor" : [ 0.149019607843137, 0.149019607843137, 0.149019607843137, 1.0 ],
					"border" : 3,
					"bordercolor" : [ 0.2, 0.2, 0.2, 1.0 ],
					"id" : "obj-45",
					"maxclass" : "panel",
					"mode" : 0,
					"numinlets" : 1,
					"numoutlets" : 0,
					"patching_rect" : [ 4.833333000000039, 9.0, 34.0, 36.0 ],
					"presentation" : 1,
					"presentation_rect" : [ 0.0, 0.0, 265.0, 134.0 ],
					"proportion" : 0.5,
					"rounded" : 0
				}

			}
 ],
		"lines" : [ 			{
				"patchline" : 				{
					"destination" : [ "obj-25", 0 ],
					"midpoints" : [ 252.5, 90.0, 390.0, 90.0, 390.0, 378.0, 310.5, 378.0 ],
					"order" : 0,
					"source" : [ "obj-1", 0 ]
				}

			}
, 			{
				"patchline" : 				{
					"destination" : [ "obj-28", 0 ],
					"midpoints" : [ 252.5, 90.0, 120.0, 90.0, 120.0, 378.0, 228.0, 378.0 ],
					"order" : 2,
					"source" : [ "obj-1", 0 ]
				}

			}
, 			{
				"patchline" : 				{
					"destination" : [ "obj-29", 0 ],
					"midpoints" : [ 252.5, 90.0, 120.0, 90.0, 120.0, 378.0, 143.5, 378.0 ],
					"order" : 4,
					"source" : [ "obj-1", 0 ]
				}

			}
, 			{
				"patchline" : 				{
					"destination" : [ "obj-30", 0 ],
					"midpoints" : [ 252.5, 90.0, 310.5, 90.0 ],
					"order" : 1,
					"source" : [ "obj-1", 0 ]
				}

			}
, 			{
				"patchline" : 				{
					"destination" : [ "obj-31", 0 ],
					"midpoints" : [ 252.5, 90.0, 228.333333333333258, 90.0 ],
					"order" : 3,
					"source" : [ "obj-1", 0 ]
				}

			}
, 			{
				"patchline" : 				{
					"destination" : [ "obj-32", 0 ],
					"midpoints" : [ 252.5, 90.0, 143.5, 90.0 ],
					"order" : 5,
					"source" : [ "obj-1", 0 ]
				}

			}
, 			{
				"patchline" : 				{
					"destination" : [ "obj-2", 0 ],
					"midpoints" : [ 228.0, 378.0, 119.0, 378.0, 119.0, 726.0, 250.5, 726.0 ],
					"source" : [ "obj-21", 0 ]
				}

			}
, 			{
				"patchline" : 				{
					"destination" : [ "obj-2", 0 ],
					"midpoints" : [ 143.5, 378.0, 120.0, 378.0, 120.0, 726.0, 250.5, 726.0 ],
					"source" : [ "obj-22", 0 ]
				}

			}
, 			{
				"patchline" : 				{
					"destination" : [ "obj-2", 0 ],
					"midpoints" : [ 310.5, 378.0, 390.0, 378.0, 390.0, 726.0, 250.5, 726.0 ],
					"source" : [ "obj-23", 0 ]
				}

			}
, 			{
				"patchline" : 				{
					"destination" : [ "obj-2", 0 ],
					"midpoints" : [ 310.5, 726.0, 250.5, 726.0 ],
					"source" : [ "obj-24", 0 ]
				}

			}
, 			{
				"patchline" : 				{
					"destination" : [ "obj-33", 0 ],
					"source" : [ "obj-25", 0 ]
				}

			}
, 			{
				"patchline" : 				{
					"destination" : [ "obj-2", 0 ],
					"midpoints" : [ 228.0, 726.0, 250.5, 726.0 ],
					"source" : [ "obj-26", 0 ]
				}

			}
, 			{
				"patchline" : 				{
					"destination" : [ "obj-2", 0 ],
					"midpoints" : [ 143.5, 726.0, 250.5, 726.0 ],
					"source" : [ "obj-27", 0 ]
				}

			}
, 			{
				"patchline" : 				{
					"destination" : [ "obj-40", 0 ],
					"source" : [ "obj-28", 0 ]
				}

			}
, 			{
				"patchline" : 				{
					"destination" : [ "obj-36", 0 ],
					"source" : [ "obj-29", 0 ]
				}

			}
, 			{
				"patchline" : 				{
					"destination" : [ "obj-42", 0 ],
					"source" : [ "obj-30", 0 ]
				}

			}
, 			{
				"patchline" : 				{
					"destination" : [ "obj-44", 0 ],
					"source" : [ "obj-31", 0 ]
				}

			}
, 			{
				"patchline" : 				{
					"destination" : [ "obj-43", 0 ],
					"source" : [ "obj-32", 0 ]
				}

			}
, 			{
				"patchline" : 				{
					"destination" : [ "obj-41", 0 ],
					"source" : [ "obj-33", 0 ]
				}

			}
, 			{
				"patchline" : 				{
					"destination" : [ "obj-22", 0 ],
					"source" : [ "obj-34", 0 ]
				}

			}
, 			{
				"patchline" : 				{
					"destination" : [ "obj-21", 0 ],
					"source" : [ "obj-35", 0 ]
				}

			}
, 			{
				"patchline" : 				{
					"destination" : [ "obj-38", 0 ],
					"source" : [ "obj-36", 0 ]
				}

			}
, 			{
				"patchline" : 				{
					"destination" : [ "obj-23", 0 ],
					"source" : [ "obj-37", 0 ]
				}

			}
, 			{
				"patchline" : 				{
					"destination" : [ "obj-27", 0 ],
					"source" : [ "obj-38", 0 ]
				}

			}
, 			{
				"patchline" : 				{
					"destination" : [ "obj-26", 0 ],
					"source" : [ "obj-39", 0 ]
				}

			}
, 			{
				"patchline" : 				{
					"destination" : [ "obj-39", 0 ],
					"source" : [ "obj-40", 0 ]
				}

			}
, 			{
				"patchline" : 				{
					"destination" : [ "obj-24", 0 ],
					"source" : [ "obj-41", 0 ]
				}

			}
, 			{
				"patchline" : 				{
					"destination" : [ "obj-37", 0 ],
					"source" : [ "obj-42", 0 ]
				}

			}
, 			{
				"patchline" : 				{
					"destination" : [ "obj-34", 0 ],
					"source" : [ "obj-43", 0 ]
				}

			}
, 			{
				"patchline" : 				{
					"destination" : [ "obj-35", 0 ],
					"source" : [ "obj-44", 0 ]
				}

			}
 ],
		"parameters" : 		{
			"obj-33" : [ "POST FX Mix", "PostMix", 0 ],
			"obj-36" : [ "POST-FX Param1", "PostParam1", 0 ],
			"obj-40" : [ "POST-FX Param2", "PostParam2", 0 ],
			"obj-42" : [ "PRE-FX Mix", "PreMix", 0 ],
			"obj-43" : [ "PRE-FX Param1", "PreParam1", 0 ],
			"obj-44" : [ "PRE-FX Param2", "PreParam2", 0 ],
			"parameterbanks" : 			{

			}
,
			"inherited_shortname" : 1
		}
,
		"dependency_cache" : [  ],
		"autosave" : 0
	}

}
